{"title":"Casino.Jack.2010.720p.BRRip.x264.Feel-Free","uid":6076143,"size":2058160824,"categoryP":"video","categoryS":"hd___movies","magnet":"?xt=urn:btih:2f3a33a26ffbc37dc66857a575cba488a2e7c11f&amp;dn=Casino.Jack.2010.720p.BRRip.x264.Feel-Free&amp;tr=udp%3A%2F%2Ftracker.openbittorrent.com%3A80&amp;tr=udp%3A%2F%2Fopen.demonii.com%3A1337&amp;tr=udp%3A%2F%2Ftracker.coppersurfer.tk%3A6969&amp;tr=udp%3A%2F%2Fexodus.desync.com%3A6969","seeders":0,"leechers":1,"uploader":"neon","files":-1,"time":1293866655,"description":"Genre:Biography | Comedy | Crime\nLanguage:English\n &lt;a href=&quot; http://www.imdb.com/title/tt1194417/&quot; rel=&quot;nofollow&quot; target=&quot;_NEW&quot;&gt; http://www.imdb.com/title/tt1194417/&lt;/a&gt;\nSource:BluRay.x264-iMSORNY\nSubtitles:Romana\n\n\nFormat : Matroska\nFile size : 1.91 GiB\nDuration : 1h 48mn\nOverall bit rate : 2 533 Kbps\n\n\nVideo\nFormat settings, CABAC : Yes\nFormat settings, ReFrames : 4 frames\nFormat settings, GOP : M=1, N=3\nCodec ID : V_MPEG4/ISO/AVC\nDuration : 1h 48mn\nBit rate : 2 200 Kbps\nWidth : 1 280 pixels\nHeight : 720 pixels\nDisplay aspect ratio : 16:9\nFrame rate mode : Variable\nFrame rate : 23.976 fps\nColor space : YUV\nChroma subsampling : 4:2:0\nBit depth : 8 bits\nScan type : Progressive\nBits/(Pixel*Frame) : 0.100\nStream size : 1.58 GiB (83%)\nWriting library : x264\n\nAudio\nID : 2\nFormat : AC-3\nFormat/Info : Audio Coding 3\nMode extension : CM (complete main)\nCodec ID : A_AC3\nDuration : 1h 48mn\nBit rate mode : Constant\nBit rate : 384 Kbps\nChannel(s) : 6 channels\nChannel positions : Front: L C R, Side: L R, LFE\nSampling rate : 48.0 KHz\nBit depth : 16 bits\nVideo delay : -1mn 5s\nStream size : 297 MiB (15%)\nLanguage : English\n\n\nPlot:\nA hot shot Washington DC lobbyist and his protTgT go down hard as their schemes to peddle influence lead to corruption and murder.\n\n","torrent":{"xt":"urn:btih:2f3a33a26ffbc37dc66857a575cba488a2e7c11f","amp;dn":"Casino.Jack.2010.720p.BRRip.x264.Feel-Free","amp;tr":["udp%3A%2F%2Ftracker.openbittorrent.com%3A80","udp%3A%2F%2Fopen.demonii.com%3A1337","udp%3A%2F%2Ftracker.coppersurfer.tk%3A6969","udp%3A%2F%2Fexodus.desync.com%3A6969"],"infoHash":"2f3a33a26ffbc37dc66857a575cba488a2e7c11f","infoHashBuffer":{"type":"Buffer","data":[47,58,51,162,111,251,195,125,198,104,87,165,117,203,164,136,162,231,193,31]},"announce":[],"urlList":[]}}